<?xml version="1.0" encoding="UTF-8"?>
<svg width="15px" height="15px" viewBox="0 0 15 15" version="1.1" xmlns="http://www.w3.org/2000/svg" xmlns:xlink="http://www.w3.org/1999/xlink">
    <!-- Generator: sketchtool 52.5 (67469) - http://www.bohemiancoding.com/sketch -->
    <title>BC86C888-E939-401B-B662-582434ECB5F6</title>
    <desc>Created with sketchtool.</desc>
    <g id="Page-1" stroke="none" stroke-width="1" fill="none" fill-rule="evenodd">
        <g id="Icons" transform="translate(-134.000000, -338.000000)" fill="#333" fill-rule="nonzero">
            <path d="M148.028404,338.970797 C146.737203,337.676401 144.637404,337.676401 143.346204,338.970797 L134.761639,347.552167 C134.694522,347.619284 134.652973,347.705577 134.640189,347.798262 L134.004177,352.509226 C133.985001,352.64346 134.032941,352.777693 134.125626,352.870379 C134.205527,352.95028 134.317389,352.99822 134.42925,352.99822 C134.448427,352.99822 134.467603,352.99822 134.486779,352.995024 L137.324863,352.611499 C137.56137,352.579539 137.727564,352.362208 137.695604,352.125701 C137.663644,351.889194 137.446313,351.723 137.209806,351.75496 L134.934225,352.06178 L135.378474,348.77625 L138.83659,352.234366 C138.916491,352.314267 139.028353,352.362208 139.140214,352.362208 C139.252076,352.362208 139.363937,352.317463 139.443838,352.234366 L148.028404,343.652997 C148.654828,343.026573 149,342.195602 149,341.310299 C149,340.424996 148.654828,339.594025 148.028404,338.970797 Z M143.512398,340.025491 L144.953812,341.466905 L137.120317,349.300401 L135.678902,347.858987 L143.512398,340.025491 Z M139.14341,351.320299 L137.733956,349.910845 L145.567452,342.077349 L146.976906,343.486803 L139.14341,351.320299 Z M147.577762,342.869967 L144.129234,339.421439 C144.567091,339.060287 145.113614,338.862132 145.688902,338.862132 C146.34409,338.862132 146.95773,339.117815 147.421156,339.578045 C147.884582,340.038275 148.137069,340.655111 148.137069,341.310299 C148.137069,341.888783 147.938914,342.432109 147.577762,342.869967 Z" id="Shape-Copy"></path>
        </g>
    </g>
</svg>